<svg width="67" height="58" viewBox="0 0 67 58" fill="none" xmlns="http://www.w3.org/2000/svg">
<ellipse cx="33.5455" cy="46.5759" rx="32.9366" ry="10.7548" fill="#C6F5FC"/>
<rect x="12.5" y="3.5" width="43" height="43" rx="21.5" stroke="#33A5CD"/>
<path d="M35.9113 26.0213C35.0609 27.6069 35.2722 29.0052 36.5311 30.2685C36.4627 30.2736 36.4029 30.282 36.3431 30.282C33.6087 30.2827 30.8743 30.2832 28.1399 30.2821C27.4482 30.2818 27.0013 29.8319 27.0012 29.1346C27.0002 24.9081 26.9989 20.6815 27.0017 16.455C27.0027 14.9291 28.1139 13.5859 29.6003 13.2977C29.6639 13.2854 29.7265 13.2677 29.7987 13.2503C29.7987 13.0227 29.7987 12.8021 29.7987 12.5647C32.3645 12.5647 34.919 12.5647 37.4936 12.5647C37.4936 12.7879 37.4936 13.0137 37.4936 13.2355C37.7357 13.3053 37.9633 13.3552 38.1798 13.4358C39.4773 13.9191 40.3003 15.1165 40.3011 16.5168C40.3025 19.1325 40.3015 21.7482 40.3015 24.364C40.3015 24.4364 40.3015 24.5088 40.3015 24.5932C40.0674 24.5932 39.8517 24.5932 39.6106 24.5932C39.6106 22.2444 39.6106 19.8925 39.6106 17.5271C35.6311 17.5271 31.6767 17.5271 27.7115 17.5271C27.7115 20.3546 27.7115 23.1744 27.7115 26.0214C30.4392 26.0213 33.1668 26.0213 35.9113 26.0213Z" fill="#FFB74D"/>
<path d="M33.6492 11.8386C32.3958 11.8386 31.1424 11.8393 29.889 11.8384C29.1942 11.8379 28.7544 11.3948 28.7512 10.6941C28.7502 10.4874 28.7482 10.2805 28.7519 10.0738C28.7627 9.46717 29.2106 9.00367 29.8058 9.0028C32.3709 8.99913 34.936 8.99893 37.5011 9.00301C38.0942 9.00398 38.5421 9.47247 38.5509 10.0783C38.5539 10.2924 38.5527 10.5066 38.5512 10.7207C38.5468 11.3811 38.1018 11.8368 37.453 11.838C36.1851 11.8403 34.9172 11.8386 33.6492 11.8386Z" fill="#FFB74D"/>
<path d="M41.7153 25.3601C42.6877 25.3601 43.6472 25.2888 44.5917 25.3785C45.7272 25.4865 46.5945 26.5984 46.6015 27.782C46.6087 28.9787 45.7444 30.0436 44.6074 30.2376C44.507 30.2548 44.4056 30.2761 44.3045 30.2767C43.474 30.2811 42.6434 30.2812 41.8128 30.2821C41.7848 30.2821 41.7566 30.2768 41.7153 30.2727C41.7153 28.6259 41.7153 26.9841 41.7153 25.3601Z" fill="#E69329"/>
<path d="M40.9938 25.3235C40.9938 26.9817 40.9938 28.6184 40.9938 30.2676C40.9538 30.2731 40.9197 30.2818 40.8856 30.2818C40.0987 30.2823 39.3116 30.2921 38.5248 30.2793C37.136 30.2567 36.0668 29.1151 36.1029 27.7091C36.1344 26.4828 37.1091 25.4068 38.331 25.3337C39.2086 25.2812 40.0916 25.3235 40.9938 25.3235Z" fill="#E69329"/>
<path d="M34.7018 22.8339C34.7018 23.2958 34.7029 23.7236 34.7015 24.1514C34.7003 24.4846 34.582 24.6045 34.2536 24.6057C33.8456 24.6071 33.4374 24.6078 33.0294 24.6054C32.729 24.6037 32.6036 24.4778 32.6018 24.1749C32.5993 23.7395 32.6012 23.3042 32.6012 22.8342C32.4732 22.8342 32.353 22.8342 32.2327 22.8342C31.9048 22.8341 31.5768 22.8376 31.2489 22.8329C30.9874 22.829 30.8543 22.6985 30.8517 22.4397C30.8471 21.9893 30.8467 21.5388 30.852 21.0883C30.8549 20.841 30.9889 20.7096 31.2365 20.7073C31.6804 20.7031 32.1244 20.7061 32.6011 20.7061C32.6011 20.3458 32.6011 19.9948 32.6011 19.6437C32.6011 18.9604 32.6285 18.9325 33.2983 18.9325C33.6044 18.9325 33.9105 18.9321 34.2166 18.9326C34.5921 18.9332 34.701 19.0411 34.7017 19.4148C34.7024 19.8348 34.7018 20.2549 34.7018 20.706C35.0895 20.706 35.4652 20.706 35.8411 20.706C35.9212 20.706 36.0015 20.7032 36.0815 20.7069C36.3128 20.7176 36.4459 20.8467 36.4491 21.0839C36.455 21.5343 36.4543 21.9848 36.4498 22.4352C36.4471 22.6959 36.3147 22.8297 36.0558 22.8326C35.6129 22.8375 35.1699 22.8339 34.7018 22.8339Z" fill="#E69329"/>
<path d="M63.4648 46.1994L33.0898 46.8547C25.8052 46.5096 17.3913 43.3307 14.3914 33.3306C18.1112 32.9811 24.7454 33.0206 24.7454 33.0206L64.1807 32.2295L58.0143 39.0019L63.4648 46.1994Z" fill="#DE350B" stroke="#DE350B" stroke-width="0.929968"/>
<path d="M25.3751 43.3306V34.8706H26.3231L31.1711 41.2666V34.8706H32.3231V43.3306H31.3991L26.5271 36.9106V43.3306H25.3751ZM34.2931 43.3306V34.8706H39.7651V35.8786H35.4931V38.5306H39.5131V39.5386H35.4931V42.3226H39.7651V43.3306H34.2931ZM43.6049 43.3306L40.6409 34.8706H41.9129L44.1809 41.5306L46.5089 34.8706H47.4569L49.7609 41.6026L52.0769 34.8706H53.2889L50.3009 43.3306H49.2569L46.9649 36.7546L44.6489 43.3306H43.6049Z" fill="white"/>
</svg>
