<svg width="66" height="59" viewBox="0 0 66 59" fill="none" xmlns="http://www.w3.org/2000/svg">
<ellipse cx="32.9366" cy="47.4574" rx="32.9366" ry="10.7548" fill="#C6F5FC"/>
<rect x="11.8911" y="8.38159" width="43" height="43" rx="21.5" stroke="#33A5CD"/>
<path d="M23.3486 29.9478C23.3486 29.921 23.3486 29.8942 23.3486 29.8669C23.3661 29.7758 23.3981 29.6848 23.3981 29.5938C23.3996 28.912 23.4885 28.2403 23.6498 27.5803C24.395 24.53 26.1366 22.2525 28.8711 20.7716C30.4359 19.9239 32.1176 19.5563 33.8951 19.6164C34.6822 19.6432 35.4554 19.7469 36.2111 19.9599C38.5775 20.6275 40.4834 21.9723 41.8934 24.0096C43.4462 26.2537 43.9971 28.7532 43.619 31.4545C43.3912 33.0851 42.7929 34.5832 41.82 35.9073C39.8501 38.5884 37.221 40.0424 33.9081 40.1937C33.8182 40.1977 33.7293 40.2276 33.6399 40.2453C33.5999 40.2453 33.56 40.2453 33.52 40.2453C33.4041 40.2265 33.2888 40.2038 33.1724 40.1891C32.5556 40.1102 31.9308 40.0718 31.3229 39.9474C30.2006 39.7172 29.1558 39.2701 28.1908 38.6435C28.0165 38.5302 27.8652 38.5186 27.6714 38.5833C26.5556 38.954 25.4359 39.3126 24.3171 39.6748C24.2511 39.696 24.1832 39.7117 24.0898 39.7375C24.1183 39.6424 24.1353 39.5787 24.1563 39.5159C24.5069 38.4513 24.848 37.3831 25.2166 36.325C25.3115 36.0529 25.274 35.8618 25.1187 35.6281C24.0304 33.995 23.4475 32.1929 23.4021 30.2179C23.3996 30.1278 23.3671 30.0383 23.3486 29.9478ZM29.833 24.2756C29.2707 24.2731 28.948 24.3712 28.6658 24.6347C27.9806 25.2745 27.6399 26.0751 27.6 27.0108C27.5635 27.8716 27.8312 28.6561 28.2353 29.3935C28.8117 30.446 29.5494 31.3811 30.3475 32.2678C31.8748 33.9651 33.7673 35.0323 35.9529 35.5952C36.6606 35.7773 37.3578 35.7889 38.0371 35.489C39.3806 34.8967 39.6593 34.2575 39.7542 33.035C39.7717 32.8115 39.6923 32.6294 39.4755 32.5252C38.7019 32.1529 37.9337 31.7696 37.1555 31.4069C36.782 31.2324 36.5332 31.3149 36.286 31.6467C36.0862 31.9152 35.8954 32.1909 35.6911 32.4554C35.363 32.8802 35.1687 32.9227 34.6778 32.7169C33.095 32.0533 31.8913 30.9416 30.9748 29.4951C30.6407 28.9681 30.6591 28.8963 31.0712 28.4335C31.279 28.1999 31.4703 27.949 31.6541 27.6951C31.7664 27.5398 31.7729 27.3562 31.7015 27.1752C31.6206 26.9693 31.5402 26.763 31.4553 26.5586C31.1871 25.9148 30.9184 25.2709 30.6462 24.6286C30.5428 24.3848 30.3465 24.2796 30.0913 24.2761C30.0059 24.2746 29.9195 24.2756 29.833 24.2756Z" fill="#FFB74D"/>
</svg>
