<svg width="66" height="58" viewBox="0 0 66 58" fill="none" xmlns="http://www.w3.org/2000/svg">
<ellipse cx="32.9366" cy="47.0168" rx="32.9366" ry="10.7548" fill="#C6F5FC"/>
<rect x="11.8911" y="7.94092" width="43" height="43" rx="21.5" stroke="#33A5CD"/>
<path d="M25.1028 23.9073C25.1028 22.3748 25.1028 20.8685 25.1028 19.3122C25.4953 19.3122 25.8863 19.3307 26.2743 19.306C26.5267 19.2899 26.7915 19.2499 27.0232 19.1544C28.862 18.3986 30.7 17.642 32.5241 16.8515C33.0868 16.6075 33.6186 16.5429 34.2244 16.656C36.595 17.1001 38.9726 17.5057 41.3479 17.926C41.969 18.0361 42.3077 18.4632 42.2246 19.029C42.1768 19.3553 42.0083 19.5878 41.6812 19.6632C41.4487 19.7163 41.2078 19.7563 40.9707 19.7579C38.931 19.7686 36.8906 19.7679 34.8509 19.7763C34.6747 19.7771 34.5607 19.7355 34.4461 19.5839C33.7903 18.7118 32.6003 18.5856 31.7722 19.2914C31.3696 19.6347 30.9763 19.988 30.583 20.3413C30.3436 20.5568 30.3167 20.8154 30.4983 21.024C30.6861 21.2395 30.937 21.2503 31.1849 21.0363C31.5559 20.7161 31.9184 20.3859 32.2878 20.0627C32.7458 19.6616 33.3115 19.6678 33.6748 20.0719C34.032 20.4698 33.9665 21.044 33.5117 21.4489C32.6427 22.2224 31.7737 22.9959 30.8986 23.7618C30.8054 23.8426 30.6692 23.9203 30.5522 23.9211C28.7819 23.9311 27.0108 23.9273 25.2406 23.9265C25.2028 23.9273 25.1659 23.9165 25.1028 23.9073Z" fill="#FFB74D"/>
<path d="M42.6517 40.5603C42.4077 40.5603 42.1853 40.578 41.9667 40.5573C41.374 40.5011 40.8391 40.6604 40.298 40.8929C38.5431 41.6487 36.7659 42.3522 35.0195 43.1242C34.4029 43.3967 33.8341 43.2504 33.2445 43.148C30.9824 42.754 28.7218 42.3506 26.4605 41.9535C25.8494 41.8465 25.5369 41.5125 25.5484 40.9621C25.5569 40.5442 25.7416 40.291 26.1441 40.1886C26.3281 40.1416 26.5236 40.1185 26.7137 40.1178C28.7919 40.1085 30.8693 40.107 32.9474 40.097C33.1191 40.0962 33.2207 40.1486 33.3261 40.2871C33.9834 41.1515 35.1418 41.2892 35.9777 40.6011C36.3933 40.2594 36.7905 39.8953 37.19 39.5351C37.4332 39.3158 37.4601 39.0648 37.28 38.8532C37.0868 38.6261 36.839 38.6184 36.5735 38.8478C36.1955 39.1749 35.8284 39.5143 35.4497 39.8407C35.0141 40.2163 34.4684 40.1986 34.1081 39.806C33.7556 39.4227 33.7933 38.8509 34.2159 38.4706C35.1164 37.6609 36.0231 36.8581 36.9344 36.0607C37.0176 35.9876 37.1561 35.9445 37.2693 35.9445C38.9818 35.9376 40.6944 35.9399 42.4062 35.9384C42.5578 35.9384 42.6863 35.926 42.6848 36.1516C42.6771 37.5724 42.6802 38.994 42.6786 40.4149C42.6794 40.451 42.6663 40.4872 42.6517 40.5603Z" fill="#FFB74D"/>
<path d="M39.7083 29.9526C39.6938 33.1733 37.0997 35.7632 33.8924 35.7584C30.6676 35.7535 28.0581 33.1326 28.0736 29.9139C28.09 26.7116 30.7121 24.111 33.9127 24.1236C37.1219 24.1352 39.7228 26.7523 39.7083 29.9526ZM33.0528 31.5814C34.1023 31.2316 34.6845 30.533 34.9554 29.5457C34.9766 29.4672 35.112 29.3732 35.2001 29.3664C35.5125 29.3441 35.8278 29.3625 36.1421 29.3558C36.5687 29.3461 36.7873 29.1533 36.795 28.7948C36.8027 28.4217 36.5735 28.2095 36.1334 28.1989C35.7872 28.1911 35.4409 28.1969 35.0792 28.1969C35.0792 27.7919 35.0792 27.4363 35.0792 27.0313C35.4728 27.0313 35.8442 27.0429 36.2147 27.0284C36.5842 27.0139 36.7882 26.8046 36.794 26.4693C36.8018 26.0886 36.5619 25.8725 36.0957 25.8715C34.6458 25.8667 33.195 25.8686 31.7451 25.8705C31.6368 25.8705 31.5265 25.8764 31.4221 25.9006C31.1155 25.9723 30.9772 26.1932 30.9926 26.4868C31.0081 26.7804 31.1638 26.9964 31.4821 27.0197C31.7703 27.04 32.0614 27.0342 32.3516 27.0352C32.8545 27.0371 33.3565 27.0362 33.8663 27.0362C33.8663 27.4489 33.8663 27.8045 33.8663 28.1969C33.58 28.1969 33.3159 28.196 33.0528 28.1969C32.545 28.1989 32.0372 28.1863 31.5304 28.2086C31.1996 28.2231 30.9897 28.4663 30.9859 28.7744C30.982 29.0883 31.189 29.3228 31.5169 29.347C31.7693 29.3654 32.0237 29.3567 32.2781 29.3577C32.7665 29.3587 33.2559 29.3577 33.7579 29.3577C33.5838 30.0437 33.1205 30.44 32.458 30.4952C32.1572 30.5204 31.8535 30.5068 31.5527 30.5252C31.2876 30.5417 31.0516 30.6696 31.0313 30.938C31.0158 31.1386 31.1097 31.3653 31.2103 31.5504C31.2799 31.6783 31.4424 31.7567 31.5623 31.8565C32.5837 32.7073 33.6022 33.5609 34.6275 34.4058C35.0269 34.7352 35.5096 34.5967 35.6227 34.1364C35.6943 33.8448 35.5444 33.6549 35.3374 33.4834C34.5955 32.8671 33.8537 32.248 33.0528 31.5814Z" fill="#E69329"/>
<path d="M24.169 21.6114C24.169 22.6481 24.1706 23.6841 24.1683 24.7209C24.1675 25.202 24.0567 25.3105 23.5717 25.312C23.0145 25.3136 22.4565 25.3159 21.8992 25.3105C21.5428 25.3074 21.3958 25.1773 21.3951 24.8294C21.3897 22.6897 21.3897 20.5492 21.3958 18.4094C21.3966 18.0692 21.5567 17.9307 21.9054 17.9284C22.4819 17.9245 23.0591 17.9253 23.6356 17.9284C24.0274 17.9307 24.1667 18.07 24.1683 18.4741C24.1713 19.5193 24.169 20.5653 24.169 21.6114Z" fill="#FFB74D"/>
<path d="M43.6083 38.2251C43.6083 37.2176 43.6076 36.2101 43.6083 35.2025C43.6091 34.6499 43.6984 34.5583 44.2379 34.556C44.7667 34.5537 45.2955 34.5514 45.8243 34.5568C46.2569 34.5614 46.3885 34.6938 46.3892 35.1325C46.3915 37.2053 46.3915 39.278 46.3892 41.3508C46.3885 41.8042 46.2499 41.9435 45.8081 41.9458C45.2601 41.9489 44.7121 41.9496 44.1641 41.9458C43.743 41.9427 43.6107 41.8142 43.6091 41.3916C43.6053 40.3364 43.6083 39.2811 43.6083 38.2251Z" fill="#FFB74D"/>
</svg>
