<svg width="207" height="50" viewBox="0 0 207 50" fill="none" xmlns="http://www.w3.org/2000/svg">
<path fill-rule="evenodd" clip-rule="evenodd" d="M20 45C31.0457 45 40 36.0457 40 25C40 13.9543 31.0457 5 20 5C8.9543 5 0 13.9543 0 25C0 36.0457 8.9543 45 20 45Z" fill="url(#paint0_linear_1158_1188)"/>
<path fill-rule="evenodd" clip-rule="evenodd" d="M28.1898 9.36435L28.8897 8.19953L30.6391 12.5014L26.0195 12.9763L26.708 11.8306C24.6949 10.8032 22.4152 10.2238 20 10.2238C11.8393 10.2238 5.22378 16.8393 5.22378 25C5.22378 29.0668 6.86665 32.7498 9.52492 35.4216L7.52535 37.4821C4.3297 34.2883 2.35297 29.875 2.35297 25C2.35297 15.2538 10.2538 7.35294 20 7.35294C22.956 7.35294 25.7423 8.07972 28.1898 9.36435ZM12.0393 40.7538L11.4479 41.7381L9.69846 37.4363L14.3181 36.9613L13.5229 38.2848C15.4787 39.2401 17.6767 39.7763 19.9999 39.7763C28.1607 39.7763 34.7762 33.1607 34.7762 25C34.7762 20.9407 33.1394 17.2638 30.4897 14.5931L32.5247 12.5682C35.6909 15.7579 37.647 20.1505 37.647 25C37.647 34.7462 29.7462 42.6471 19.9999 42.6471C17.1358 42.6471 14.431 41.9648 12.0393 40.7538ZM23.9685 20.6938H18.9023V15.6277H15.356V20.6938H10.2899V24.2401H15.356V29.3063H18.9023V24.2401H23.9685V20.6938ZM28.4014 26.8998H31.0611V28.673H28.4014V31.3327H26.6282V28.673H23.9685V26.8998H26.6282V24.2401H28.4014V26.8998ZM24.4751 32.0504H22.4065V29.9818H21.1399V32.0504H19.0713V33.317H21.1399V35.3856H22.4065V33.317H24.4751V32.0504Z" fill="white"/>
<path d="M47.9816 36.1817V12.6358H52.3235V22.6037H63.43V12.6358H67.7837V36.1817H63.43V26.1793H52.3235V36.1817H47.9816Z" fill="#4060D0"/>
<path d="M80.277 36.5266C78.4747 36.5266 76.9181 36.1587 75.6074 35.4229C74.3044 34.6794 73.3018 33.6293 72.5996 32.2727C71.8974 30.9084 71.5463 29.3026 71.5463 27.4555C71.5463 25.6389 71.8974 24.0447 72.5996 22.6727C73.3096 21.2931 74.3005 20.22 75.5723 19.4536C76.844 18.6794 78.3382 18.2924 80.0546 18.2924C81.1626 18.2924 82.2081 18.4686 83.1912 18.8212C84.182 19.1661 85.0559 19.7027 85.8127 20.4308C86.5773 21.1589 87.1781 22.0864 87.615 23.2131C88.052 24.3321 88.2704 25.6658 88.2704 27.214V28.4902H73.5359V25.6849H84.2093C84.2015 24.8878 84.026 24.1788 83.6827 23.558C83.3394 22.9295 82.8596 22.4351 82.2432 22.0749C81.6346 21.7146 80.9246 21.5345 80.1132 21.5345C79.2471 21.5345 78.4864 21.7415 77.831 22.1553C77.1756 22.5616 76.6646 23.0981 76.2979 23.7649C75.939 24.4241 75.7556 25.1484 75.7478 25.9379V28.3867C75.7478 29.4138 75.939 30.2952 76.3213 31.031C76.7036 31.7592 77.238 32.3187 77.9246 32.7096C78.6112 33.0928 79.4149 33.2844 80.3355 33.2844C80.9519 33.2844 81.5098 33.2001 82.0091 33.0315C82.5085 32.8552 82.9415 32.5984 83.3082 32.2612C83.6749 31.924 83.9519 31.5062 84.1391 31.008L88.0949 31.4449C87.8452 32.472 87.3693 33.3687 86.6671 34.1352C85.9727 34.894 85.0832 35.4842 83.9987 35.9057C82.9142 36.3196 81.6736 36.5266 80.277 36.5266Z" fill="#4060D0"/>
<path d="M97.0275 36.5381C95.8883 36.5381 94.8623 36.3388 93.9495 35.9402C93.0444 35.534 92.3266 34.9362 91.7961 34.1467C91.2733 33.3572 91.0119 32.3838 91.0119 31.2265C91.0119 30.2301 91.1992 29.4061 91.5737 28.7546C91.9482 28.1031 92.4592 27.5819 93.1068 27.191C93.7544 26.8001 94.4839 26.505 95.2954 26.3058C96.1146 26.0988 96.9611 25.9494 97.835 25.8574C98.8883 25.7501 99.7426 25.6543 100.398 25.57C101.053 25.478 101.529 25.34 101.826 25.1561C102.13 24.9644 102.282 24.6694 102.282 24.2708V24.2018C102.282 23.3357 102.021 22.665 101.498 22.1898C100.975 21.7146 100.222 21.477 99.2394 21.477C98.2017 21.477 97.3786 21.6993 96.77 22.1438C96.1692 22.5884 95.7635 23.1134 95.5528 23.7189L91.5971 23.1671C91.9092 22.094 92.4241 21.1973 93.1419 20.4768C93.8597 19.7486 94.7375 19.2044 95.7752 18.8442C96.8129 18.4763 97.9598 18.2924 99.216 18.2924C100.082 18.2924 100.944 18.392 101.802 18.5913C102.661 18.7906 103.445 19.1201 104.155 19.58C104.865 20.0322 105.434 20.6492 105.864 21.431C106.3 22.2128 106.519 23.1901 106.519 24.3628V36.1817H102.446V33.7558H102.306C102.048 34.2463 101.685 34.7062 101.217 35.1354C100.757 35.557 100.176 35.8981 99.4735 36.1587C98.7791 36.4116 97.9637 36.5381 97.0275 36.5381ZM98.1276 33.4799C98.978 33.4799 99.7153 33.3151 100.34 32.9855C100.964 32.6483 101.444 32.2037 101.779 31.6519C102.122 31.1 102.294 30.4983 102.294 29.8468V27.7659C102.161 27.8732 101.935 27.9728 101.615 28.0648C101.303 28.1568 100.952 28.2373 100.562 28.3062C100.172 28.3752 99.7856 28.4365 99.4032 28.4902C99.0209 28.5438 98.6893 28.5898 98.4085 28.6282C97.7765 28.7125 97.2108 28.8504 96.7115 29.042C96.2121 29.2337 95.8181 29.5019 95.5294 29.8468C95.2407 30.1841 95.0964 30.621 95.0964 31.1575C95.0964 31.924 95.3812 32.5026 95.9508 32.8935C96.5203 33.2844 97.2459 33.4799 98.1276 33.4799Z" fill="#4060D0"/>
<path d="M115.016 12.6358V36.1817H110.779V12.6358H115.016Z" fill="#4060D0"/>
<path d="M128.349 18.5223V21.7415H118.015V18.5223H128.349ZM120.566 14.2914H124.802V30.8701C124.802 31.4296 124.888 31.8588 125.06 32.1577C125.239 32.449 125.473 32.6483 125.762 32.7556C126.051 32.8629 126.371 32.9165 126.722 32.9165C126.987 32.9165 127.229 32.8974 127.447 32.859C127.674 32.8207 127.845 32.7862 127.962 32.7556L128.676 36.0092C128.45 36.0859 128.126 36.1702 127.705 36.2622C127.291 36.3541 126.784 36.4078 126.183 36.4231C125.122 36.4538 124.167 36.2966 123.316 35.9517C122.466 35.5992 121.791 35.055 121.291 34.3192C120.8 33.5834 120.558 32.6636 120.566 31.5599V14.2914Z" fill="#4060D0"/>
<path d="M136.515 25.8344V36.1817H132.278V12.6358H136.421V21.523H136.632C137.053 20.5266 137.704 19.741 138.586 19.1661C139.476 18.5836 140.607 18.2924 141.98 18.2924C143.228 18.2924 144.317 18.5491 145.245 19.0627C146.174 19.5762 146.892 20.3273 147.399 21.3161C147.914 22.3048 148.171 23.512 148.171 24.9376V36.1817H143.935V25.5814C143.935 24.3934 143.622 23.4698 142.998 22.8107C142.382 22.1438 141.516 21.8104 140.4 21.8104C139.651 21.8104 138.98 21.9714 138.387 22.2933C137.802 22.6076 137.342 23.0636 137.006 23.6615C136.678 24.2593 136.515 24.9836 136.515 25.8344Z" fill="#4060D0"/>
<path d="M152.677 36.1817V12.6358H161.665C163.506 12.6358 165.051 12.9731 166.3 13.6476C167.556 14.322 168.504 15.2495 169.144 16.4298C169.791 17.6025 170.115 18.9362 170.115 20.4308C170.115 21.9407 169.791 23.282 169.144 24.4547C168.496 25.6274 167.54 26.551 166.276 27.2255C165.012 27.8923 163.456 28.2257 161.607 28.2257H155.65V24.7192H161.021C162.098 24.7192 162.98 24.5352 163.666 24.1673C164.353 23.7994 164.86 23.2935 165.188 22.6497C165.523 22.0059 165.691 21.2662 165.691 20.4308C165.691 19.5953 165.523 18.8595 165.188 18.2234C164.86 17.5872 164.349 17.0928 163.655 16.7402C162.968 16.38 162.083 16.1999 160.998 16.1999H157.019V36.1817H152.677Z" fill="#33B399"/>
<path d="M177.936 12.6358V36.1817H173.699V12.6358H177.936Z" fill="#33B399"/>
<path d="M182.292 36.1817V18.5223H186.529V36.1817H182.292ZM184.422 16.0159C183.751 16.0159 183.174 15.7975 182.69 15.3606C182.206 14.9161 181.965 14.3834 181.965 13.7625C181.965 13.134 182.206 12.6013 182.69 12.1644C183.174 11.7199 183.751 11.4976 184.422 11.4976C185.101 11.4976 185.678 11.7199 186.154 12.1644C186.638 12.6013 186.88 13.134 186.88 13.7625C186.88 14.3834 186.638 14.9161 186.154 15.3606C185.678 15.7975 185.101 16.0159 184.422 16.0159Z" fill="#33B399"/>
<path d="M194.35 18.5223L197.978 25.0411L201.664 18.5223H206.147L200.728 27.352L206.24 36.1817H201.781L197.978 29.8238L194.209 36.1817H189.715L195.192 27.352L189.856 18.5223H194.35Z" fill="#33B399"/>
<defs>
<linearGradient id="paint0_linear_1158_1188" x1="16.2215" y1="31.9534" x2="24.5328" y2="42.3254" gradientUnits="userSpaceOnUse">
<stop stop-color="#33B399"/>
<stop offset="1" stop-color="#33B399"/>
</linearGradient>
</defs>
</svg>
