<svg width="67" height="58" viewBox="0 0 67 58" fill="none" xmlns="http://www.w3.org/2000/svg">
<ellipse cx="33.5455" cy="46.5759" rx="32.9366" ry="10.7548" fill="#C6F5FC"/>
<rect x="12.5" y="3.5" width="43" height="43" rx="21.5" stroke="#33A5CD"/>
<rect x="29" y="27.3306" width="12" height="3" fill="#E69329"/>
<path d="M32.2984 18.278C32.6521 18.3148 32.8946 18.4155 33.0538 18.5915C33.2109 18.7652 33.2603 18.9189 33.2595 19.2308C33.2591 19.3466 33.2495 19.4744 33.237 19.5285C33.1738 19.8024 32.9915 20.0085 32.7185 20.1148C32.4942 20.2021 32.4562 20.2059 31.7228 20.214L31.0383 20.2216V18.2603H31.5832C31.8829 18.2603 32.2047 18.2682 32.2984 18.278Z" fill="#FFB74D"/>
<path fill-rule="evenodd" clip-rule="evenodd" d="M28.2326 33.1688C26.8866 33.1686 25.7955 32.0775 25.7951 30.7314L25.7937 15.5599C25.7933 14.2137 26.8846 13.122 28.2308 13.122L29.0405 13.1211L29.0411 12.3097C29.0411 11.8984 29.3467 11.5584 29.7433 11.5046L29.8536 11.4972C30.2649 11.4972 30.6048 11.8029 30.6586 12.1994L30.6661 12.3097L30.6655 13.1211H33.9176L33.9182 12.3097C33.9182 11.8984 34.2238 11.5584 34.6204 11.5046L34.7307 11.4972C35.142 11.4972 35.4819 11.8029 35.5357 12.1994L35.5432 12.3097L35.5426 13.1211H38.7905L38.7911 12.3097C38.7911 11.8984 39.0967 11.5584 39.4933 11.5046L39.6036 11.4972C40.0149 11.4972 40.3548 11.8029 40.4086 12.1994L40.4161 12.3097L40.4155 13.1211L41.227 13.122C42.573 13.1225 43.6641 14.2135 43.6646 15.5596L43.6661 27.4763C43.6661 27.5407 43.6584 27.6044 43.6436 27.6661L43.6121 27.7676L43.5634 27.8718L43.5412 27.9066C43.5103 27.9586 43.472 28.007 43.4281 28.0509L38.548 32.9309C38.5338 32.9451 38.519 32.9588 38.5037 32.972C38.4885 32.9851 38.4727 32.9977 38.4565 33.0098C38.4492 33.0152 38.4423 33.02 38.4348 33.0252L38.3398 33.0816L38.2132 33.1327L38.0907 33.1603L38.0325 33.1667L37.9735 33.1688H28.2326ZM41.2268 14.7471H28.2199L28.2152 14.7472H41.2377C41.2341 14.7471 41.2305 14.7471 41.2268 14.7471ZM40.891 28.2889H39.5985C39.1872 28.2889 38.8472 28.5945 38.7934 28.9911L38.786 29.1014L38.785 30.3949L40.891 28.2889ZM29.5833 17.0787V18.2603H29.8962V22.8084H29.5833V24.0062H31.0383V21.4165L31.5194 21.4164C31.784 21.4163 32.0574 21.4117 32.1268 21.4061L32.2531 21.3959L32.7435 22.0334C33.0132 22.384 33.2574 22.7008 33.2862 22.7374L33.3385 22.8039L32.0692 24.1842H31.3356V25.3658H32.5641L33.3068 24.5565C33.7153 24.1114 34.0534 23.7472 34.0583 23.7472C34.0631 23.7472 34.3478 24.1114 34.6908 24.5565L35.3146 25.3658H36.6865V24.1842L35.8651 24.1831L35.3644 23.5327C35.089 23.175 34.8637 22.8775 34.8637 22.8716C34.8637 22.8658 35.109 22.5942 35.4087 22.2682L35.9538 21.6754H36.6865V20.4939L35.4583 20.4941L34.8685 21.1374C34.5441 21.4912 34.2449 21.8147 34.2035 21.8563L34.1284 21.932L33.8 21.5049C33.6194 21.27 33.4703 21.0721 33.4685 21.0651C33.4668 21.058 33.5148 21.0195 33.5752 20.9795C33.8986 20.7649 34.1755 20.3843 34.2993 19.984C34.4748 19.4165 34.4345 18.7106 34.1989 18.2282C33.8798 17.5745 33.248 17.1817 32.3772 17.0956C32.274 17.0854 31.6869 17.0787 30.8948 17.0787H29.5833ZM34.7272 27.7472H30.3958L30.2855 27.7546C29.8889 27.8084 29.5833 28.1484 29.5833 28.5597C29.5833 29.0084 29.947 29.3722 30.3958 29.3722H34.7272L34.8374 29.3648C35.234 29.311 35.5397 28.971 35.5397 28.5597C35.5397 28.111 35.1759 27.7472 34.7272 27.7472Z" fill="#FFB74D"/>
<path d="M63.4648 46.1994L33.0898 46.8547C25.8052 46.5096 17.3913 43.3307 14.3914 33.3306C18.1112 32.9811 24.7454 33.0206 24.7454 33.0206L64.1807 32.2295L58.0143 39.0019L63.4648 46.1994Z" fill="#DE350B" stroke="#DE350B" stroke-width="0.929968"/>
<path d="M25.3751 43.3306V34.8706H26.3231L31.1711 41.2666V34.8706H32.3231V43.3306H31.3991L26.5271 36.9106V43.3306H25.3751ZM34.2931 43.3306V34.8706H39.7651V35.8786H35.4931V38.5306H39.5131V39.5386H35.4931V42.3226H39.7651V43.3306H34.2931ZM43.6049 43.3306L40.6409 34.8706H41.9129L44.1809 41.5306L46.5089 34.8706H47.4569L49.7609 41.6026L52.0769 34.8706H53.2889L50.3009 43.3306H49.2569L46.9649 36.7546L44.6489 43.3306H43.6049Z" fill="white"/>
</svg>
