<svg width="24" height="24" viewBox="0 0 24 24" fill="none" xmlns="http://www.w3.org/2000/svg">
<g clip-path="url(#clip0_151_3771)">
<path d="M7.37999 10.6923C8.47904 13.1177 10.832 14.1735 11.9999 14.1735C12.7678 14.1735 14.0481 13.7167 15.1474 12.7146C14.7455 12.7426 14.3159 12.7569 13.8568 12.7569C13.7491 12.7569 13.6361 12.7559 13.5153 12.754C13.2839 12.9322 12.9972 13.0327 12.6997 13.0327H11.7215C10.9844 13.0327 10.3847 12.433 10.3847 11.6959C10.3847 10.9588 10.9844 10.3591 11.7215 10.3591H12.6997C13.0531 10.3591 13.3836 10.4968 13.6287 10.7344C13.7101 10.7353 13.7904 10.7357 13.8692 10.7357C15.1319 10.7357 15.9641 10.6199 16.5084 10.4802C16.4378 10.3084 16.3993 10.1204 16.3993 9.92407V6.53464C16.3993 6.18205 16.5302 5.84407 16.7565 5.58297C16.6357 4.64296 16.4165 3.92533 16.0895 3.39595C15.4154 2.30505 14.1159 1.797 11.9999 1.797C10.2445 1.797 9.03235 2.16139 8.29417 2.91098C7.72195 3.49207 7.39036 4.32122 7.23535 5.57345C7.46672 5.83553 7.60053 6.17697 7.60053 6.53464V9.92407C7.60059 10.2061 7.51954 10.4693 7.37999 10.6923Z" fill="#FEC46D"/>
<path d="M4.97497 10.7243H6.14836C6.5901 10.7243 6.94849 10.366 6.94849 9.92407V6.53464C6.94849 6.23937 6.78814 5.98212 6.55025 5.84348C6.81227 3.06807 7.88328 1.14483 12 1.14483C14.3641 1.14483 15.8398 1.75128 16.6443 3.0532C17.1123 3.81081 17.3375 4.78936 17.4427 5.84765C17.2086 5.98727 17.0514 6.24224 17.0514 6.53458V9.924C17.0514 10.305 17.318 10.6232 17.6746 10.7038C17.1574 11.0422 16.0865 11.3877 13.8692 11.3877C13.6896 11.3877 13.5024 11.3854 13.3074 11.3807C13.1933 11.1613 12.9643 11.0111 12.6998 11.0111H11.7217C11.3436 11.0111 11.037 11.3177 11.037 11.6958C11.037 12.074 11.3436 12.3805 11.7217 12.3805H12.6998C12.9283 12.3805 13.1302 12.2682 13.2544 12.0962C13.4604 12.1014 13.662 12.1047 13.8569 12.1047C16.3562 12.1046 17.9451 11.678 18.5886 10.8316C18.616 10.7956 18.6409 10.7597 18.6637 10.7243H19.0251C19.4669 10.7243 19.8253 10.366 19.8253 9.92407V6.53464C19.8253 6.09278 19.467 5.73451 19.0251 5.73451H18.5838C18.4596 4.45587 18.1844 3.36739 17.6182 2.45131C16.5991 0.801823 14.7613 0 11.9999 0C9.23841 0 7.40072 0.801824 6.38155 2.45138C5.81547 3.36745 5.54034 4.45581 5.41612 5.73458H4.97491C4.53298 5.73458 4.17471 6.09278 4.17471 6.53471V9.92413C4.17471 10.366 4.53304 10.7243 4.97497 10.7243Z" fill="white"/>
<path d="M21.6738 20.6912C21.4077 19.037 20.86 16.9062 19.7615 16.1491C19.0125 15.6325 16.3976 14.2354 15.281 13.6389L15.2575 13.6264C15.1297 13.5581 14.9738 13.5718 14.8599 13.6612C14.2741 14.121 13.6328 14.4307 12.9539 14.5818C12.8339 14.6085 12.7354 14.6938 12.6918 14.8087L12 16.6321L11.3081 14.8087C11.2645 14.6938 11.166 14.6085 11.046 14.5818C10.3671 14.4307 9.72569 14.121 9.13985 13.6612C9.02599 13.5717 8.87001 13.558 8.74226 13.6264C7.63812 14.2162 4.98935 15.6427 4.24152 16.1469C2.97651 16.9991 2.42405 20.0819 2.32617 20.6912C2.31645 20.7517 2.32206 20.8135 2.34247 20.8711C2.38773 20.9989 3.54808 24.0001 11.9999 24.0001C20.4516 24.0001 21.6121 20.9989 21.6574 20.8712C21.6779 20.8134 21.6835 20.7515 21.6738 20.6912ZM17.7385 18.7916H14.391V18.0866H17.7385V18.7916Z" fill="#FFC4C4"/>
</g>
<defs>
<clipPath id="clip0_151_3771">
<rect width="24" height="24" fill="white"/>
</clipPath>
</defs>
</svg>
